<svg viewBox="0 0 214 214" xmlns="http://www.w3.org/2000/svg"><path d="m92.2 198.1c-7.5-2.6-23.5-8.3-30.2-10.8-3.3-1.2-6.7-2.4-10.1-3.6l-8.3-2.9c-1.2-.4-2.4-.8-3.5-1.2-.5-.1-.4-.2 0-.6.8-.6 14.1-3.1 16.7-3.2 2.3 0 5.4.7 4.9 1.2-.2.2-2 .6-4.1 1-4.8.9-5.7 1.3-5.5 2.1 0 .5 1.8 1.2 6.5 2.8 10.6 3.6 29.8 10.2 32.7 11.3l2.7 1 4.4-1c2.4-.5 9-2.1 14.8-3.4 4.7-1.1 9.4-2.2 14.1-3.3 6.6-1.5 13.2-3.1 19.8-4.6 2.5-.6 4.9-1.2 7.4-1.7 14.1-3.3 16.6-4.1 16.6-5.3s-.7-1.2-6.5-2.9c-3.1-.9-6.6-1.9-7.8-2.3s-4.3-1.3-7.1-2.1c-2.5-.8-5.1-1.5-7.6-2.3-9.6-3-9.3-3-15.9-1.6-2.5.5-5.1 1-7.6 1.5l-4.2.8v-1.2c-.2-.7-.2-1.3 0-1.4.3-.3 16.4-3.4 17.9-3.4s3.5.5 13.1 3.4c1.5.4 4.7 1.4 7.2 2.1s5.8 1.7 7.2 2.1c1.5.5 5.9 1.8 9.9 3 13.6 4.1 16.3 5 16.1 5.4-.2.5-4.6 1.6-30.8 7.7-3.3.8-7.9 1.9-10.2 2.4-3 .7-6 1.4-9 2.1-2.7.6-5.4 1.3-8.1 1.9-1.9.5-3.9.9-5.8 1.4-2.7.6-7.9 1.8-18.5 4.2-6.9 1.6-9.2 1.9-11.1 1.2zm-1.1-6.3c-1-.4-6.8-2.4-12.9-4.5-5.2-1.8-10.5-3.6-15.7-5.4-2.5-.9-4.7-1.6-4.8-1.6s1.2-.3 2.8-.7c1.7-.4 5.7-.8 9-1s6.7-.5 7.6-.7c1.5-.4 1.6-.3 2.6.7 1.2 1.1 3.6 2.1 5.1 2.1s4.1-.5 6.8-1.1c.9-.2 2.1-.8 2.8-1.3s1.8-1.1 2.5-1.3c1.8-.4 5.6-1.3 6.1-3.3s1.7-1.4 1.8-1.4.7.2 1.4.5c2.6 1.1 5.2.3 6.6-2 .7-1.1.8-1.1 8.2-2.7 4.1-.9 8.3-1.7 9.3-1.9 1.9-.4 3-.2 10.6 2.2 7.4 2.3 18.6 5.7 21.9 6.6 2 .6 3.5 1.1 3.4 1.2s-2.2.6-4.7 1.2c-2.4.5-4.7 1.1-7.1 1.6-2.7.7-5.4 1.3-8.1 1.9-3 .7-7.5 1.7-9.9 2.3s-6.6 1.5-9.3 2.1c-4.2 1-8.5 2-12.7 3-12.8 3.1-18.7 4.4-20.2 4.4-.7 0-2.1-.3-3.1-.8zm-8.1-14.2c-1.6-.7-2.1-1.7-1.3-2.8 1-1.5-.1-3.5-2.2-3.9-1-.2-1.8 0-4.5 1.4-3.1 1.6-3.4 1.6-6.2 1.6-3.1 0-6.7-.5-8.8-1.2-1.3-.4-1.3-.5-1.4-2.5-.2-4 1.3-8.1 4-11.1l1.5-1.6 2.3.8c2.9 1 3.6 1 4.8 0 1.5-1.3 8.4-4.7 12.1-6 1.8-.7 4.7-1.5 6.3-1.8 2.8-.5 3.3-.5 5.9 0 4 .7 9.5 3.5 11.9 5.8 3.1 3.1 7.3 13.8 1.4 14.5s-4-2.1-4-3.8c0-4.1-1.5-6.5-5.7-9.4-2.4-1.7-3.7-1.9-4.1-.7-.3.8 0 1.1 2 2.1 2.8 1.4 4.7 3.6 5.2 5.8.5 2.4 1.1 7.8-4 9.4s-.8-1.2-.7-2.7c.1-2.5 0-3-.8-5-.7-1.5-1.5-2.7-2.8-3.8-2-1.7-2.8-1.9-3.4-.8-.3.6-.2.9 1.4 2.4 2.4 2.1 2.4 3.8 3.2 6.2 1.1 3.5-2.1 6.5-3.9 6.5s-.6-.1-.3-1.1c.9-2.6-.4-6.2-3.5-9.4-1.6-1.7-1.9-1.9-2.6-1.5-1.1.6-.9 1.4.9 3.3 1.9 2 3 4.2 3 6 0 2.8-3.1 4.5-5.9 3.3zm-29.4-6.1c-3-.5-13-3.1-15.6-3.9-6.7-2.3-10-6-10.7-12.1-.4-3.9 1.4-10.4 4.8-17.4 5.6-11.5 14.1-20.9 24-26.2 3.5-1.9 3.7-1.9 3.8.3.3 6.2 6.3 11.9 12.9 12.3 5.5.4 8.3-2.1 8.3-7.1s0-2.3.7-2.3 1.5.8 2.5 1.9c5.9 6.1 9.9 14.7 12 25.5 1.1 5.8 1.3 5.4-2.2 5.4s-4.2 0-4.4-4.8c-.4-11-.6-12.2-2.1-11.7-.5.2-.5 1.1-.3 8.2.2 6.7.2 8.1-.2 8.4-.3.2-2 1-3.8 1.7s-5.8 2.5-8.8 4l-5.5 2.7-3.2-1.2c-5.8-2.1-10.9-3.9-12.7-4.6l-1.8-.6v-1.9c.2-2.7 1.3-6.9 2.9-10.1 1.2-2.4 1.3-2.7.8-3.2-.9-.9-1.6-.3-3.1 2.7-1.6 3.2-2.8 7.4-2.8 9.7s-.1 1.5-.3 1.5-1.4-.2-2.8-.5c-3.6-.7-6.5 0-6 1.4.1.4.7.6 1.8.6 2.6 0 6.1.9 11.7 3 2.3.8 4.5 1.7 6.8 2.5.8.3 1.5.7 1.5.8s-.4.6-.9 1.1c-2.5 2.3-4.4 7-4.6 11.3-.1 2.9-.3 3-2.6 2.6zm119.6-19.8c-1.2-.8-.2-1.6 4.1-3.5 4.6-2 5.6-2.2 5.9-1.3.3.8-.4 1.3-4.6 3.1-5.1 2.1-4.9 2.1-5.4 1.7zm14.4-6.9c0-.6.4-1 1.7-1.6 8.4-3.7 11.6-5 12.1-5s1 .7 1 1.3-13.3 6.1-14.2 6.1-.7-.3-.7-.8zm-23.3-1.1c-.6-.7-.5-1 1.9-3 1.6-1.4 2.2-1.7 2.6-1.4.9.8.5 1.7-1.5 3.3-1.1.9-2.1 1.6-2.2 1.6s-.4-.2-.7-.5zm-11.9-4c-.3-.1-.4-1-.4-2.6 0-3 .2-3.5 1.3-3.5s.8 0 .8 2.8-.4 3.9-1.7 3.4zm54.6-3.2c-.4-.8-.3-1 1.7-1.8 1.8-.8 3.1-.9 3.3-.2.2.6-.6 1.4-2.5 2.1s-2.1.7-2.5 0zm-67.3-1.2c-.2-.2-.4-.9-.4-1.5 0-1.3-.6-1.9-1.8-1.9s-2.3-.9-1.7-1.6c.2-.3.9-.5 1.4-.5 1.3 0 2.1-.8 2.1-2.3 0-2.6 2-2.4 2.2.3.1 1.4.2 1.5 1.4 1.7.7.1 1.5.4 1.7.6.6.6-.6 1.8-2 1.9-1 0-1.1.2-1.3 1.5-.3 2.2-.8 2.7-1.7 1.9zm37.8-2.8c-.2-.2-.4-.6-.4-.8s2.6-2.7 5.7-5.5c6.8-6.1 9.2-8.3 15.1-13.8 2.5-2.3 4.7-4.1 5-4.1.5 0 1.3.7 1.3 1.1s-25.7 23.6-26.1 23.6c-.1 0-.4-.2-.6-.4zm-8-6c0-.2-.2-1-.3-1.7 0-1.1-.2-1.3-1.3-1.4-1-.1-1.2-.3-1.2-1.1s.2-.9 1.2-1.1c1.1-.2 1.2-.3 1.3-1.3 0-1.7.4-2.2 1.2-2.2s.9.5 1.2 2.5c0 .7.3.9 1 1 .5 0 1.1.4 1.4.7.4.5.3.6-.2 1-.4.3-1 .5-1.5.5-.7 0-.8.2-.8 1 0 1.7-.4 2.6-1.1 2.6s-.7-.2-.8-.4zm-16.2-.5c-.3-.5.8-14.3 1.1-14.6.2-.2.6-.2 1.1 0 .7.4.8.6.6 2.2-.1 1-.4 4.1-.6 6.9s-.5 5.2-.6 5.4c0 .1-.5.3-.8.3s-.7-.1-.8-.3zm-78-13.7c-6.8-1.1-11.7-3.2-17.6-7.4-2.5-1.8-7-6.4-8.5-8.7-.6-.9-1.3-1.7-1.6-1.7s-1.4.3-2.5.8c-1.5.6-2.7.8-5.1.8-2.8 0-3.4 0-5.5-1.1-3.1-1.4-4.7-2.9-5.9-5.4-.9-1.8-1-2.4-1-5.4s.1-3.6.9-5.1c1-2 2.3-3.2 4.8-4.3 4.6-2.1 7.9-.2 12.1 7 1.7 3 2.6 3.8 4 3.8s2.3-1.1 2.2-4.4c0-1.6-.3-3.7-.6-4.6-.5-1.6-.5-1.8 0-2.1 1.5-.8 4-3.6 4.8-5.3 1.9-3.9 2-9.4.3-14.5l-.7-2h.8c.7 0 2.4 1.3 10.8 8.2 1.6 1.3 3.6 2.8 4.5 3.3l1.6.9-1.2.6c-1.5.8-2.2 1.6-1.9 2.3.3.9 1.2 1 2.3.2 1.6-1.1 2.8-1.2 6-.4 4.5 1.1 6.8.8 8.6-.9 2.2-2.2.6-5.6-4.3-9.1-3-2.1-3.9-3.1-3.5-3.6.5-.5 3.4 1 5.7 2.7 1.5 1.1 2.8 2.5 3.8 4.1 2.9 4.6 3.3 5.1 5.2 6.6 4.4 3.6 9.3 5.5 14.2 5.4 1.6 0 3.4 0 3.9-.1.8 0 .9.1 1.5 2.4 1.9 7.5-.1 17-5.2 23.7-4 5.3-9.4 9.1-15.8 11.3-6.2 2.1-11.4 2.6-17.1 1.7zm15.7-19.1c2.8-1.5 4.4-4.6 2.6-5-.4 0-1.1.4-1.9 1.4-2.1 2.5-4.6 3.1-7.4 1.7-.8-.4-1.9-1.3-2.3-1.9-1.2-1.9-2.7-2-2.7-.3s3 4.3 5.6 5.1c1.6.5 4.2 0 6.1-1zm-46.1-4.6c.3-.7-.3-1.4-1.9-2.2-1.4-.7-1.7-1.3-1.7-2.8s-1.6-3.7-2.5-3.5c-.4 0-.9.4-1.1.7-.3.5-.2.8.4 1.4.4.5.8 1.3.8 1.9 0 1.4 1.1 3.2 2.5 3.8.6.3 1.1.7 1.1.9 0 .8 2.3.6 2.6-.2zm58.4-.7c1.3-1.2 1.7-2.8 1.7-6.3 0-2.1-.2-3.2-.7-4.3-1.3-2.8-4.4-3.4-6.4-1.3-1.4 1.4-1.7 2.6-1.7 6.4s.1 3.6.8 4.6c.4.7 1.2 1.4 1.7 1.7 1.3.7 3.4.3 4.6-.8zm-27.1 0c1.6-.8 2.2-2.4 2.4-6.1.2-5.1-1.2-7.8-4.1-7.8s-3.3.9-4 2.6c-.9 2-.9 7-.1 9.1 1 2.5 3.5 3.4 5.8 2.3zm99.2 20c-.2-.1-.4-1.4-.5-2.7-.2-2.7-1.1-4.9-2.5-5.8-.4-.3-1.8-.6-3.1-.7-1.9-.2-2.3-.3-2.4-.9-.2-.9.5-1.3 2.8-1.3 3.5 0 5.2-2.3 5.2-6.8 0-1.9.1-2.4.6-2.6 1-.4 1.5.9 1.5 3.5 0 4.2 1.3 5.6 5.1 5.9 2.4.2 2.5.2 2.5 1.1s-.1.9-2.3 1.1c-3.4.3-5.3 2-5.3 4.8s-.7 5-1.7 4.4zm32-2.6c-.7-.8-.3-1.8.7-1.8s1.7 1 1.1 1.7-1.2.7-1.8 0zm-52.7-.2c-.1-.2 0-2.8.2-5.9.3-4.3.5-5.6.9-5.7 1-.4 1.5.9 1.2 3.9-.5 7.3-.6 7.8-1.4 7.9-.4 0-.9 0-1-.2zm-124.6-32.9c-.9-2.3-1.4-6.3-1.1-9.7.5-6.5 3.3-11.7 7.5-13.6 2.5-1.1 3.1 0 .8 1.4-1.8 1-4 3.8-4.9 6.3-1.5 4-1.8 10.8-.6 14.8.3 1.1.3 1.6 0 1.9-.7.7-1.2.4-1.8-1zm-24.1.1c-.2-.4-.4-1.2-.4-1.7 0-1.3-.2-1.4-2.4-1.8-1.2-.2-1.7-.4-1.8-.9-.2-.9.5-1.3 2.3-1.3 1.6 0 1.6 0 2.1-2.6.5-2.5 2.2-2 2.3.8v1.6c.1 0 2.2.2 2.2.2 2 .2 2.1.2 2.1 1.1s-.2.9-1.8 1.1c-2.3.2-2.6.5-2.6 2.1s-1.3 2.9-2.1 1.5zm109.2.4c-.6-.6-.1-1.2 1.4-2.3 3.9-2.7 5.5-5.7 5.5-9.8s-1.9-7.4-5.1-9.2c-.8-.4-1.4-.9-1.4-1 0-.4 1.3-1 2.3-1s3.8-1.8 5-3.6c1.3-1.8 1.5-4.4.6-5.6-.9-1.1-1.8-.9-4.3.8-6.3 4.4-12.3 3.3-25.5-4.4-5.6-3.3-7.7-4.3-11.8-5.7-3.4-1.1-3.7-1.2-9.2-1.2-5.3 0-5.8 0-8.5 1-4 1.4-7 3.2-9.5 5.6-2 1.9-3 2.4-3 1.3 0-.8 2.3-3.4 4.4-5 7.3-5.5 17.3-6.9 26.8-3.6 3.7 1.3 6.2 2.5 11.8 5.8 8.6 5 12.6 6.6 16.8 6.6 3.2 0 4.3-.4 6.9-2.1 1.2-.8 2.5-1.5 2.9-1.5 2.5-.2 3.8.7 4.5 2.9.3 1 .3 1.7-.2 3.4s-1 2.4-3 4.5l-2.4 2.4 1.1 1.3c5.1 6.4 3.4 15.3-3.8 19.9-1.7 1.1-1.9 1.2-2.3.8zm24.9-1.8c-.2-.1-.5-.9-.5-1.7-.1-1.2-.2-1.4-1.1-1.5-.5 0-1.1-.3-1.4-.6-.6-.7.1-1.5 1.4-1.6.8 0 1-.3 1.1-1.3s.3-1.2 1.1-1.2.9.2 1 1.3c0 1.1.2 1.3.9 1.3 2 0 2.3 1.9.3 2-1 0-1.1.2-1.1 1.3s-.2 1.4-.6 1.7c-.6.6-.6.6-1.1.3zm-135.2-23.9c-1.3-1.6.9-3.9 2.4-2.5.9.8.9 1.7 0 2.4-.8.7-2 .8-2.5 0zm36.4-2.7c-1.2-1.5-1.6-3-1.7-5.7 0-2.4.1-3 .9-4.4.7-1.1 1.4-1.8 2.4-2.3 1.3-.6 1.6-.6 2.9-.2 1.2.4 1.6.8 2.3 2.1 1.2 2.4 1 7.1-.3 7.3-.5 0-.6-.4-.7-2.9-.1-2.6-.2-3.1-1-3.9-.9-1-1.8-1.1-2.9-.5-1.9 1-2.3 5.9-.8 9.1l.9 1.9h-.8c-.5 0-1-.2-1.2-.4zm73.5-21.5c0-.2-.2-.8-.3-1.3 0-.6-.4-.9-.9-1-.4 0-1-.3-1.2-.6-.5-.6 0-1.5 1.2-1.6.6 0 .8-.4.9-1.3.2-2.1 2.2-1.8 2.2.3s.2 1 .9 1.1c1.2.1 1.9 1.2 1.2 1.7-.3.2-.9.3-1.3.3-.6 0-.8.2-.8 1 0 1.5-1.5 2.6-1.9 1.4z" fill="#fffae6"/></svg>