<svg viewBox="0 0 214 214" xmlns="http://www.w3.org/2000/svg"><path d="m103.57223 181.8c1.7-1.6-.6-5.6-3.3-8.1-2.000004-1.8-3.800004-3.4-2.200004-3.5 1.5-.1 4.400004 1.4 5.800004 4s5.4 2.8 4.7-1.3-6.7-10.3-14.100004-9.4c-9.2 1.1-16 7.4-18.3 17-.3 1.4-.9 4.2-.3 5.3 1.3 2.3 8.8 4 13.6.8s-1.7-4.5-.4-5.3c1.9-1.1 3.6 5.8 6.9 4.8 7.700004-2.4-5.7-9.9-2.2-9.5 6 .8 6.600004 8.3 10.000004 5.2zm-30.400004 2.1c0-4.1 1.8-9.5 4.4-13.1.7-1 1.2-1.8 1.2-1.9 0 0-1.6-.5-3.5-1-1.8-.5-5.3-1.7-7.8-2.6-5.1-2-7.1-2.6-10.9-2.9-2.2-.2-2.7-.3-2.8-.8-.2-.9 1.3-1.3 4.3-1.3h2.6l1-3.6c1.1-4 2.8-8.3 3.5-9 .6-.6 1.6-.3 1.6.5s-.8 2.9-1.7 5.7c-2.4 7.3-2.5 7 .3 8.1 6.2 2.4 10 3.6 12.5 4.2l2.8.6 2.6-1.6c1.4-.9 3.9-2.1 5.6-2.6 2.4-.8 2.9-1.1 2.9-1.7s.4-2 .9-3.5c1-3.2 2.7-10.5 3.4-14 .5-2.6 1.1-3.5 1.9-2.7.8.7.7 1.6-1.1 10.1-.6 2.9-1.2 5.8-1.8 8.7-.2 1.2 5.100004 1.9 7.900004 3.3s5.4 4.2 6.5 6.6c.9 2.2 1.2 2.3 4.6 1.4 5.1-1.3 13.5-11.2 15.7-13.4s.2-.6-.1-.8c-2.2-1.1-9-4.5-12.2-10.1-1.4-3-2.5-.7-4.4 1.1-5.1 4.9-7.7 5.5-8.2 4.1-.2-.4.2-1 1.2-1.9l1.5-1.3-.7-2.1c-3-9.3-8.000004-18.3-13.400004-24.2l-2.5-2.6v1.8c0 2.2-1 4.3-2.6 5.7-3.1 2.7-8.8 1.6-12.2-2.3-1.5-1.7-3.5-5.5-3.5-6.8s-.6-1.2-2.9 0c-11.5 6.1-22.6 20.4-28.7 36.8-2.2 6-2.7 8.7-2.6 13.3.1 3.6.3 4.3 1.2 6.2 1.4 2.9 4.6 6.2 7.4 7.5 4.4 2.2 12.7 3.8 21.3 4.2l3.9.2c.4 0 .8-.3.8-.7v-1.5zm-60.299999-1.7c.8-.5.7-17.1-.1-22.5-.8-5.5-2.7-12.7-4.6000005-18.4-4.7000001-13.5-5.5000001-16.4-5.4000001-19.4 0-3.3 1.8-6.4 4.6000001-7.9 2.1-1.1 5.2000005-1.5 7.1999995-.9 2.300001.7 5.000001 2.8 6.800001 5.3 5.199999 6.9 7.899999 18.4 9.099999 38.6.3 4.8.6 5.9 1.7 5.9s1.2-1.3.9-8.4c-.8-15.9-2.7-25.5-6.6-33.6-1.399999-2.8-2.099999-3.8-4.599999-6.4-3.4-3.4-4.9-4.1-8.9-4.5-6.8000005-.6-12.40000058 4.2-12.90000058 11-.3 3.7.2 5.7 4.09999998 17.5 5.5000001 16.3 6.5000006 21.7 6.5000006 35.4v8.7h.9c.5 0 1.1-.2 1.4-.3zm137.700003-36c1.9-2.7 1.3-7.8.2-10.3s-4.6-4.4-7.1-4.9-7.5.6-9.2 5.1 2.8 4 3.8 3.3c6.3-4.3 7-.3 5.2 0-4.2 1-6 2.9-5.8 4.6s1.9 3 4.2 2.1 2.9-2.4 3.9-1.3-2.9 4.7-6.9 3.7-3.9-1.5-3.3-4.8-1.4-1.6-2.6-2.7c-3.6-3.4 1.3-10.6 5.5-11.9s16.6-12.1 14.1-15.8-10.7 0-16.5 9.5c-2.1 3.8-4.5 7.8-5.8 7.8s-1.5-1.6 1.1-3.9c3.1-4.7 3.9-8.4 2.5-10.8-.9-1.5-1.9-2-3.8-1.8-1.3.1-1.9.5-3.2 1.7-2.7 2.6-3.7 5.1-5.8 14.4-.8 3.4-3.3 11.7-2.8 13 .3 1.3 4.4 5.5 6.2 7.2 1.9 1.7 5 3.5 7.1 4 5.5 2.2 16.3-4.7 18.8-8.3zm-92.200004-33.4c-.2-.3-1.5-.8-2.8-1.2-2.3-.7-3.1-.7-17.5-.6-8.3 0-13.399999-.5-13.399999 1.1s-1.3 1.3 16.499999 1.2c15.3 0 17.6 0 17.2-.5zm41.2-1c5.900004-1.6 10.000004-3.8 14.100004-7.7 9.8-9.3 12.1-23.2 6.3-37.4-.5-1.2-.8-2.2-.7-2.4 0-.1.9-.3 1.9-.3 3.7 0 7.7-2.3 9.2-5.3.9-1.8.9-4.7 0-6.2-1-1.6-2.5-2.3-6.2-2.6-2.3-.2-3.9-.5-5.4-1.2-1.2-.5-2.4-.9-2.7-.8-.9.3-.6 1.6.6 2.5 1.9 1.4 3.7 2 7 2.3 3.7.3 4.5.8 4.5 2.9 0 4.1-4.4 7.6-10.2 7.9-5.1.3-10.2-1.6-14.4-5.6l-2.6-2.5-3.800004.8c-3.2.7-4.5.7-8.6.6-5.7-.2-8.5-.9-13.2-3.3l-3.1-1.6.2 1.2c.9 5.4 1 6.8.6 9.4-.7 4.7-3.2 8.7-6.7 11l-.9.6.8 3.2c1.5 6.2.6 9.7-2.5 9.7s-2.2-.9-4-3.9c-2.2-3.7-4.3-6-6.4-7.1-1.4-.7-2.2-.9-4.5-.9-3.5 0-5.5.9-7.7 3.3-1.9 2.1-2.5 4.1-2.5 7.8 0 2.3.2 3.1 1.1 5 3.5 7.1 12.7 9.4 21.1 5.1 1.7-.9 2.3-1 2.6-.7s.2.6-.4 1.3c-.8.8-.8.9-.3 1.7 2.3 3.5 7.9 8.1 12.7 10.5 5.2 2.5 8.4 3.3 14.9 3.4 5.1.1 5.9 0 8.9-.8zm-1.2-19.5c-1.7-.9-3.9-3.1-4.2-4.2-.2-.9.4-1.9 1.1-1.9s1 .7 1.7 1.6c1.6 2 2.9 2.6 5.000004 2.6 2.1 0 3.5-.8 4.7-2.5 1-1.4 2.3-1.4 2.5 0 .2 1.6-2.3 4-5.2 4.9-1.3.4-4.000004 0-5.500004-.7zm12.900004-6.5c-.4-.2-.9-.9-1.2-1.6-.8-1.8-1-6.5-.5-8.4.5-1.7 2-3.4 3.2-3.4s2.4 1.3 3.1 2.6c.7 1.4.8 6.5.2 8.4-.8 2.3-2.9 3.3-4.7 2.4zm-23.700004-.3c-1.3-1-1.8-2.8-1.8-6.3 0-2.4.2-3.3.8-4.5 1.4-2.7 4.2-2.6 5.5 0 .7 1.5.9 5.9.4 8.3-.6 2.8-3 3.9-4.9 2.4zm-6.5-22.3c-.3-1.7 4.4-4.5 7.6-4.5 3.4 0 7.2 1.7 7.2 3.2s-.9 1.2-2.9.2c-3.1-1.5-7.1-1.1-9 .9-1.1 1.2-2.7 1.3-2.9.2zm-65.1 11.1c.2-.3.4-1.4.600001-2.4.3-2.3 1.5-3.5 3.8-3.9 2.9-.4 3.1-2.1.3-2.5-1.9-.3-3.5-1.3-3.7-2.5-.600001-2.8-1.100001-3.8-1.700001-3.8s-.799999.4-1.099999 1.8c-.7 3.1-1.7 4.1-4.4000005 4.6-2.5.4-2.2 2.1.4000005 2.5 2.1.3 3.3 1.6 3.8 3.9.599999 2.8 1.299999 3.6 1.999999 2.3zm26.4-4.7c.2-.2.3-2.4.3-4.9 0-3.1.2-5 .6-6.5 2-6.9 6.8-11.1 13.2-11.7l2.2-.2 3.4-3.4c8.3-8.2 17.9-12.7 27.4-12.7 6.1 0 8 .7 20.900004 7.4 3.4 1.8 3.8 1.9 6.2 1.9 2.7 0 3.8-.4 6.6-2.5s4.5-1.3 4.9 2.3c.2 1.9-.9 4.8-2.1 5.9-.4.3-.7.9-.7 1.3 0 1.1 1.3.8 2.8-.6 3.8-3.5 3.5-10.5-.5-12.5-2.1-1-3.4-.7-5.8 1.1-4.5 3.4-6 3.3-13.1-1.1-4-2.5-7.6-4.2-11.300004-5.2-3.5-1-12.6-.9-16.5.2-7.9 2.1-16.4 7.5-21.3 13.3l-1.8 2.1-2.6.2c-3 .2-6.6 1.8-9.1 3.9-2.1 1.8-4.2 5.1-5.3 8.4-.8 2.5-.9 3.5-.9 6.9 0 2.2.2 4.5.4 5 .5 1.2 1.6 1.9 2.1 1.3zm-27.1-27.4c.6-.5 1.1-1.2 1.1-1.3 0-.4-2.199999-2.6-2.599999-2.6s-2.4 2.2-2.4 2.6c0 .3 2.1 2.3 2.5 2.3s.699999-.5 1.299999-1zm42.1-3.4c1-1.1-.6-2.5-1.7-1.5-.4.5-.5.7-.2 1.2.5.8 1.3.9 1.9.3z" fill="#fffae6"/></svg>